<svg width="116" height="113" viewBox="0 0 116 113" fill="none" xmlns="http://www.w3.org/2000/svg">
<path fill-rule="evenodd" clip-rule="evenodd" d="M53.5824 65.6797C54.0307 64.8863 54.5676 65.1759 55.1059 65.3121C71.4921 69.4169 87.8796 73.531 104.263 77.6464C106.981 78.3275 109.698 79.0072 112.55 79.7213C112.253 78.4253 111.611 77.4494 111.254 76.3689C110.998 75.5913 110.509 75.2277 109.696 75.0042C91.0376 69.9023 72.3887 64.7699 53.7385 59.6362C52.2692 59.2302 52.5443 59.221 51.8434 60.4495C47.8682 67.4558 43.9009 74.4686 39.931 81.4775C38.6575 83.7283 37.3853 85.9804 36.0443 88.3462C38.6125 88.6742 41.0471 88.9796 43.4777 89.3023C48.8124 90.0072 54.1444 90.7319 59.4818 91.4314C64.8191 92.127 70.1578 92.7882 75.4938 93.4865C81.5201 94.276 87.5464 95.0615 93.5634 95.9105C94.9996 96.1089 96.2586 95.9422 97.5294 95.2136C98.9338 94.4069 100.447 93.7972 101.895 93.0646C102.24 92.8887 102.705 92.8544 102.92 92.3148C83.2154 89.1859 63.5403 86.061 43.6536 82.9031C47.0708 76.9865 50.353 71.3477 53.5824 65.6797Z" fill="white"/>
<path fill-rule="evenodd" clip-rule="evenodd" d="M29.5856 93.0289C36.8418 79.9871 44.0345 67.0577 51.2232 54.1376C70.4606 59.869 89.6054 65.5713 109.068 71.3702C108.585 70.2382 108.176 69.409 107.879 68.5415C107.535 67.5523 106.952 67.0075 105.906 66.6755C90.5602 61.8077 75.2333 56.8882 59.8984 51.986C56.8131 50.9981 53.7147 50.0592 50.644 49.033C50.0079 48.8201 49.6958 48.8928 49.475 49.4958C49.4128 49.6664 49.2977 49.8198 49.2091 49.9825C40.7654 65.4166 32.3244 80.8494 23.8886 96.2861C23.6743 96.6775 23.3728 97.0385 23.3186 97.5596C24.6939 97.9074 26.097 97.8571 27.475 97.988C31.2201 98.3438 34.9679 98.6572 38.7143 98.9799C42.5996 99.3158 46.4849 99.6398 50.3716 99.973C54.118 100.292 57.8658 100.617 61.6135 100.938C65.4076 101.261 69.2017 101.58 72.9944 101.908C75.6763 102.138 78.3621 102.368 81.0427 102.613C81.8057 102.683 82.4841 102.535 83.1705 102.175C84.6476 101.409 86.1671 100.727 87.6575 99.9823C87.8995 99.8633 88.3478 99.8752 88.2446 99.2946C68.7639 97.2171 49.2594 95.1329 29.5856 93.0289Z" fill="white"/>
<path fill-rule="evenodd" clip-rule="evenodd" d="M17.9734 101.557C17.9099 101.137 18.0474 101.001 18.1347 100.841C28.127 82.2445 38.114 63.6498 48.1036 45.0538C48.667 44.0064 48.6749 44.0117 49.8849 44.4243C67.9665 50.5921 86.0441 56.7639 104.132 62.9106C104.537 63.0481 104.938 63.384 105.539 63.183C105.148 62.2692 104.712 61.4109 104.421 60.5077C104.15 59.6561 103.599 59.2792 102.795 58.9922C96.5667 56.7745 90.3513 54.5105 84.1319 52.2663C72.2552 47.979 60.3771 43.6957 48.4964 39.411C47.4107 39.0209 47.4027 39.0196 46.8526 40.0537C45.6373 42.3441 44.4299 44.6399 43.2172 46.9317C33.1694 65.9165 23.1216 84.9026 13.0777 103.886C12.8251 104.363 12.595 104.85 12.2922 105.46C12.9164 105.522 13.4097 105.587 13.9042 105.616C15.9448 105.728 17.9866 105.831 20.0284 105.933C28.1019 106.33 36.1753 106.711 44.2474 107.125C52.4134 107.544 60.5768 107.99 68.7401 108.441C69.687 108.493 70.5519 108.392 71.4101 107.917C72.6202 107.242 73.8923 106.68 75.1341 106.067C75.3576 105.956 75.7292 105.957 75.5996 105.484C56.3886 104.148 37.1526 102.907 17.9734 101.557Z" fill="white"/>
<path fill-rule="evenodd" clip-rule="evenodd" d="M8.26407 107.601C20.7293 83.6635 33.2051 59.7302 45.6783 35.7968C46.2906 34.6252 46.2945 34.6238 47.4979 35.0801C65.3613 41.8602 83.2221 48.6429 101.089 55.4045C101.437 55.5354 101.788 55.9044 102.278 55.6359C101.933 54.8107 101.569 54.0133 101.271 53.1934C100.984 52.4013 100.485 51.945 99.6771 51.625C86.5109 46.4239 73.3581 41.191 60.2038 35.9621C55.4748 34.0843 50.7445 32.2131 46.03 30.2969C45.3331 30.0125 44.906 29.994 44.6653 30.7848C44.6124 30.9594 44.496 31.1141 44.4114 31.2781C39.9045 40.0511 35.3964 48.8241 30.8922 57.5971C22.2686 74.4012 13.649 91.2106 5.00825 108.008C4.60887 108.783 4.39729 109.521 4.53746 110.392C4.6102 110.849 4.73715 111.043 5.20926 111.048C6.04503 111.056 6.88081 111.125 7.71658 111.146C16.7739 111.402 25.8326 111.642 34.8899 111.904C43.1101 112.141 51.333 112.338 59.5519 112.683C61.5051 112.766 63.0127 112.006 64.5652 110.949C45.6359 110.25 26.7054 109.547 7.7708 108.844C7.79329 108.295 8.07629 107.963 8.26407 107.601Z" fill="white"/>
<path fill-rule="evenodd" clip-rule="evenodd" d="M43.4143 27.1177C44.0662 25.8283 44.0675 25.8296 45.4138 26.3877C63.059 33.706 80.7055 41.0244 98.3493 48.344C98.5913 48.4432 98.8135 48.6667 99.156 48.3877C98.8624 47.6907 98.5001 46.9951 98.2753 46.2572C98.0029 45.3659 97.4025 44.9493 96.5852 44.5976C79.2111 37.1113 61.8476 29.6012 44.4815 22.0964C42.9593 21.4392 42.9594 21.4392 42.2175 22.9256C29.8342 47.7357 17.4616 72.5524 5.04131 97.3427C4.1857 99.05 3.49142 100.671 3.97411 102.615C4.10371 103.139 3.99394 103.722 3.99394 104.394C4.58507 104.188 4.60887 103.807 4.74244 103.542C17.6414 78.0736 30.5285 52.5943 43.4143 27.1177Z" fill="white"/>
<path fill-rule="evenodd" clip-rule="evenodd" d="M96.3816 41.9555C95.9756 40.9888 95.6674 40.3646 95.4519 39.71C95.1543 38.8094 94.5711 38.3215 93.6997 37.9181C76.6906 30.0668 59.696 22.1772 42.6975 14.2955C42.2783 14.1011 41.8617 13.8962 41.4372 13.711C41.1542 13.588 40.903 13.6066 40.7496 13.9358C40.6332 14.1871 40.4864 14.4238 40.3647 14.6724C28.0965 39.8899 15.831 65.1046 3.56679 90.3194C3.3671 90.732 3.15155 91.1314 3.17006 91.6313C3.21502 92.8558 3.31949 94.0685 3.71622 95.3195C16.4711 69.4316 29.2259 43.5477 42.0045 17.6109C60.0782 25.7041 78.0818 33.763 96.3816 41.9555Z" fill="white"/>
<path fill-rule="evenodd" clip-rule="evenodd" d="M115.095 85.3442C114.794 84.6354 114.634 83.9041 113.637 83.7018C110.234 83.0075 106.851 82.2206 103.463 81.4576C93.3453 79.1751 83.2287 76.8807 73.1094 74.6008C67.4626 73.3286 61.8079 72.0922 56.1665 70.7896C55.5436 70.6454 55.2632 70.7472 54.9578 71.2802C53.8588 73.2122 52.7109 75.1139 51.5366 77.1042C52.0246 77.3858 52.4385 77.4348 52.8485 77.5154C56.9903 78.2996 61.1322 79.0918 65.274 79.8852C72.3292 81.2341 79.3817 82.5817 86.4369 83.9332C93.4894 85.2834 100.547 86.619 107.594 87.9997C110.922 88.6543 110.912 88.6966 113.893 87.2393C114.101 87.1388 114.312 87.0462 114.519 86.9417C115.558 86.426 115.557 86.426 115.095 85.3442Z" fill="white"/>
<path fill-rule="evenodd" clip-rule="evenodd" d="M66.7433 22.6479C75.593 26.8757 84.44 31.1128 93.5873 35.49C93.3029 34.8116 93.1125 34.4506 92.9975 34.0658C92.5902 32.6984 91.724 31.8904 90.4095 31.2503C77.6321 25.0336 64.8892 18.7428 52.1383 12.4705C48.1115 10.4895 44.09 8.50057 40.0632 6.51692C39.082 6.03423 39.0807 6.04085 38.5848 7.06837C38.5438 7.15169 38.5001 7.23368 38.4604 7.31699C26.7067 32.065 14.9648 56.8156 3.17404 81.545C2.30785 83.3647 2.76144 85.0693 3.07882 86.8691C15.3986 61.2338 27.7183 35.5972 40.0579 9.92086C49.0386 14.2042 57.8922 18.4214 66.7433 22.6479Z" fill="white"/>
<path fill-rule="evenodd" clip-rule="evenodd" d="M18.4957 44.7312C24.9082 31.0758 31.318 17.4177 37.7305 3.7623C38.229 2.69907 38.2383 2.70171 39.287 3.22275C39.4523 3.30474 39.6229 3.38276 39.7869 3.46608C55.7777 11.5474 71.7672 19.6315 87.7567 27.7115C88.6983 28.1863 89.6411 28.6544 90.5814 29.1252C90.3248 27.931 90.0947 26.9088 88.9323 26.3137C74.0576 18.6939 59.2067 11.0291 44.3492 3.37483C42.2929 2.31424 40.2312 1.26291 38.188 0.177192C37.6868 -0.0899392 37.3589 -0.0899392 37.0349 0.420519C36.5892 1.12008 36.0232 1.7284 35.6662 2.50467C32.7264 8.89597 29.7575 15.2714 26.7953 21.6521C18.6875 39.1135 10.5797 56.5749 2.47051 74.0336C1.91906 75.2238 1.90716 77.5539 2.47713 78.7996C2.61201 78.5272 2.73897 78.2826 2.85534 78.0313C8.06968 66.9335 13.284 55.833 18.4957 44.7312Z" fill="white"/>
<path fill-rule="evenodd" clip-rule="evenodd" d="M28.0278 11.9176C26.8799 13.4794 25.4451 14.8336 24.6252 16.6374C17.1243 33.1413 9.63145 49.6506 2.07641 66.1307C1.28295 67.8604 1.55934 69.483 1.73522 71.3873C4.01509 67.2891 29.7536 10.8438 29.8263 9.78589C29.0659 10.3876 28.5687 11.1824 28.0278 11.9176Z" fill="white"/>
<path fill-rule="evenodd" clip-rule="evenodd" d="M19.4823 22.9124C18.7629 23.4969 18.2775 24.2969 17.7208 25.0177C16.6245 26.4406 15.4634 27.7987 14.7175 29.4928C10.3615 39.3898 5.96438 49.271 1.50779 59.1245C0.783095 60.7286 0.988071 62.2348 1.41654 63.8614C7.52881 50.2787 13.6437 36.6947 19.756 23.112C19.6661 23.0459 19.5748 22.9798 19.4823 22.9124Z" fill="white"/>
<path fill-rule="evenodd" clip-rule="evenodd" d="M6.56211 39.7126C4.76096 43.869 3.01932 48.0532 1.10709 52.158C0.40752 53.6563 0.362558 55.0541 0.775156 56.7548C1.83046 55.1969 10.5109 35.3473 10.5162 34.3052C9.16598 36.0838 7.47723 37.6046 6.56211 39.7126Z" fill="white"/>
<path fill-rule="evenodd" clip-rule="evenodd" d="M2.71383 44.0964C1.89657 45.1345 1.08195 46.1753 0.262042 47.2108C0.115253 47.3972 -0.0156681 47.5916 0.0015235 47.8323C0.058388 48.6562 0.131121 49.4814 0.198565 50.3052C0.280556 50.3119 0.359902 50.3198 0.441892 50.3291C1.30544 48.2978 2.16899 46.2679 3.03121 44.2379C2.92542 44.1903 2.81962 44.1427 2.71383 44.0964Z" fill="white"/>
</svg>
