<svg width="56" height="56" viewBox="0 0 56 56" fill="none" xmlns="http://www.w3.org/2000/svg">
<path fill-rule="evenodd" clip-rule="evenodd" d="M3.5 28C3.5 27.5359 3.68437 27.0908 4.01256 26.7626C4.34075 26.4344 4.78587 26.25 5.25 26.25L46.5255 26.25L35.511 15.239C35.1824 14.9104 34.9978 14.4647 34.9978 14C34.9978 13.5353 35.1824 13.0896 35.511 12.761C35.8396 12.4324 36.2853 12.2478 36.75 12.2478C37.2147 12.2478 37.6604 12.4324 37.989 12.761L51.989 26.761C52.152 26.9236 52.2813 27.1167 52.3695 27.3293C52.4577 27.5419 52.5031 27.7698 52.5031 28C52.5031 28.2302 52.4577 28.4581 52.3695 28.6707C52.2813 28.8833 52.152 29.0764 51.989 29.239L37.989 43.239C37.6604 43.5676 37.2147 43.7522 36.75 43.7522C36.2853 43.7522 35.8396 43.5676 35.511 43.239C35.1824 42.9104 34.9978 42.4647 34.9978 42C34.9978 41.5353 35.1824 41.0896 35.511 40.761L46.5255 29.75L5.25 29.75C4.78587 29.75 4.34075 29.5656 4.01256 29.2374C3.68437 28.9092 3.5 28.4641 3.5 28Z" fill="#191919"/>
</svg>
