<svg width="323" height="113" viewBox="0 0 323 113" fill="none" xmlns="http://www.w3.org/2000/svg">
<path d="M165.58 50.8835H163.35V30.1735L156.46 44.2435H154.93L148.11 30.1735V50.8835H145.89V27.3735H149.12L155.76 41.0635L162.37 27.3735H165.58V50.8835Z" fill="#191919"/>
<path d="M188.93 50.8835H186.21L174.55 29.9035V50.8835H172.33V27.3735H175.66L186.65 47.1635V27.3735H188.93V50.8835Z" fill="#191919"/>
<path d="M211.46 29.4435H203.39V50.8835H201.09V29.4435H193.02V27.3735H211.46V29.4435Z" fill="#191919"/>
<path d="M229.98 34.7135C229.98 36.1402 229.816 37.3502 229.49 38.3435C229.163 39.3435 228.66 40.1569 227.98 40.7835C227.306 41.4102 226.46 41.8669 225.44 42.1535C224.42 42.4335 223.22 42.5735 221.84 42.5735H217.92V50.8835H215.62V27.3735H222.13C224.823 27.3735 226.806 27.9802 228.08 29.1935C229.346 30.4135 229.98 32.2535 229.98 34.7135ZM227.52 34.7735C227.52 33.7535 227.39 32.9035 227.13 32.2235C226.876 31.5369 226.51 30.9902 226.03 30.5835C225.55 30.1769 224.963 29.8835 224.27 29.7035C223.583 29.5302 222.796 29.4435 221.91 29.4435H217.92V40.4835H221.47C222.523 40.4835 223.43 40.4002 224.19 40.2335C224.95 40.0602 225.573 39.7635 226.06 39.3435C226.553 38.9169 226.92 38.3335 227.16 37.5935C227.4 36.8602 227.52 35.9202 227.52 34.7735Z" fill="#191919"/>
<path d="M159.8 82.3435H145.89V58.8235H159.8V60.9035H148.18V68.8335H158.17V70.9235H148.18V80.2535H159.8V82.3435Z" fill="#191919"/>
<path d="M178.49 82.3435H176.3V71.2836C176.3 70.2836 176.256 69.4502 176.17 68.7836C176.076 68.1169 175.916 67.5835 175.69 67.1835C175.463 66.7902 175.156 66.5102 174.77 66.3435C174.376 66.1835 173.886 66.1035 173.3 66.1035C172.513 66.1035 171.606 66.3935 170.58 66.9735C169.546 67.5602 168.493 68.3669 167.42 69.3935V82.3435H165.22V64.5236H167.42V67.3435C167.926 66.8569 168.436 66.4102 168.95 66.0035C169.47 65.5902 169.993 65.2369 170.52 64.9436C171.046 64.6502 171.576 64.4202 172.11 64.2535C172.636 64.0935 173.173 64.0135 173.72 64.0135C174.673 64.0135 175.453 64.1535 176.06 64.4335C176.673 64.7202 177.163 65.1369 177.53 65.6835C177.89 66.2302 178.14 66.9036 178.28 67.7036C178.42 68.5036 178.49 69.4202 178.49 70.4536V82.3435Z" fill="#191919"/>
<path d="M197.92 64.5236V81.9536C197.92 83.2136 197.783 84.2936 197.51 85.1936C197.236 86.0935 196.82 86.8302 196.26 87.4035C195.7 87.9702 194.99 88.3869 194.13 88.6536C193.27 88.9202 192.243 89.0535 191.05 89.0535C189.61 89.0535 188.363 88.8869 187.31 88.5535C186.256 88.2202 185.42 87.8102 184.8 87.3235L185.73 85.6236C186.31 86.0969 187.036 86.4836 187.91 86.7836C188.783 87.0769 189.83 87.2236 191.05 87.2236C191.903 87.2236 192.623 87.1269 193.21 86.9335C193.796 86.7402 194.276 86.4369 194.65 86.0236C195.03 85.6102 195.303 85.0769 195.47 84.4235C195.636 83.7769 195.72 82.9935 195.72 82.0735V79.9135C195.386 80.2402 195.01 80.5536 194.59 80.8535C194.176 81.1469 193.736 81.4036 193.27 81.6236C192.796 81.8435 192.306 82.0202 191.8 82.1535C191.293 82.2802 190.766 82.3435 190.22 82.3435C189.073 82.3435 188.086 82.1402 187.26 81.7335C186.433 81.3269 185.753 80.7336 185.22 79.9536C184.693 79.1802 184.296 78.2302 184.03 77.1035C183.77 75.9769 183.64 74.6936 183.64 73.2535C183.64 71.9602 183.776 70.7535 184.05 69.6335C184.323 68.5135 184.746 67.5369 185.32 66.7036C185.893 65.8702 186.616 65.2136 187.49 64.7336C188.37 64.2536 189.42 64.0135 190.64 64.0135C191.58 64.0135 192.476 64.1969 193.33 64.5635C194.176 64.9302 194.973 65.4302 195.72 66.0635V64.5236H197.92ZM195.72 77.8235V68.0736C194.893 67.4269 194.083 66.9102 193.29 66.5236C192.49 66.1369 191.663 65.9436 190.81 65.9436C189.95 65.9436 189.213 66.1202 188.6 66.4735C187.98 66.8269 187.47 67.3235 187.07 67.9635C186.663 68.6035 186.366 69.3669 186.18 70.2535C185.993 71.1469 185.9 72.1236 185.9 73.1835C185.9 74.0835 185.953 74.9669 186.06 75.8335C186.16 76.7002 186.373 77.4702 186.7 78.1435C187.026 78.8235 187.496 79.3736 188.11 79.7936C188.723 80.2136 189.533 80.4235 190.54 80.4235C191.06 80.4235 191.563 80.3469 192.05 80.1936C192.53 80.0402 192.986 79.8402 193.42 79.5935C193.86 79.3469 194.27 79.0669 194.65 78.7535C195.036 78.4402 195.393 78.1302 195.72 77.8235Z" fill="#191919"/>
<path d="M206.75 60.1735C206.75 60.7468 206.63 61.1402 206.39 61.3535C206.143 61.5602 205.743 61.6635 205.19 61.6635C204.61 61.6635 204.21 61.5335 203.99 61.2735C203.77 61.0135 203.66 60.6468 203.66 60.1735C203.66 59.6602 203.773 59.2868 204 59.0535C204.226 58.8268 204.623 58.7135 205.19 58.7135C205.77 58.7135 206.173 58.8268 206.4 59.0535C206.633 59.2802 206.75 59.6535 206.75 60.1735ZM206.29 82.3435H204.1V64.5235H206.29V82.3435Z" fill="#191919"/>
<path d="M225.77 82.3435H223.58V71.2836C223.58 70.2836 223.533 69.4502 223.44 68.7836C223.346 68.1169 223.186 67.5835 222.96 67.1835C222.733 66.7902 222.426 66.5102 222.04 66.3435C221.646 66.1835 221.156 66.1035 220.57 66.1035C219.79 66.1035 218.883 66.3935 217.85 66.9735C216.816 67.5602 215.763 68.3669 214.69 69.3935V82.3435H212.5V64.5236H214.69V67.3435C215.196 66.8569 215.71 66.4102 216.23 66.0035C216.743 65.5902 217.263 65.2369 217.79 64.9436C218.316 64.6502 218.846 64.4202 219.38 64.2535C219.913 64.0935 220.45 64.0135 220.99 64.0135C221.943 64.0135 222.726 64.1535 223.34 64.4335C223.946 64.7202 224.433 65.1369 224.8 65.6835C225.16 66.2302 225.41 66.9036 225.55 67.7036C225.696 68.5036 225.77 69.4202 225.77 70.4536V82.3435Z" fill="#191919"/>
<path d="M244.66 73.4436H233.18C233.18 74.7436 233.26 75.8702 233.42 76.8235C233.586 77.7769 233.863 78.5602 234.25 79.1735C234.643 79.7935 235.163 80.2502 235.81 80.5436C236.456 80.8369 237.26 80.9835 238.22 80.9835C238.7 80.9835 239.136 80.9402 239.53 80.8535C239.93 80.7736 240.3 80.6336 240.64 80.4335C240.986 80.2335 241.32 79.9802 241.64 79.6735C241.953 79.3602 242.263 78.9769 242.57 78.5236L244.32 79.6635C244.006 80.1702 243.66 80.6236 243.28 81.0236C242.9 81.4169 242.463 81.7502 241.97 82.0236C241.476 82.2969 240.916 82.5069 240.29 82.6535C239.656 82.8002 238.933 82.8736 238.12 82.8736C236.94 82.8736 235.903 82.7036 235.01 82.3636C234.116 82.0236 233.366 81.4835 232.76 80.7435C232.153 79.9969 231.693 79.0369 231.38 77.8636C231.073 76.6835 230.92 75.2535 230.92 73.5735C230.92 72.0669 231.05 70.7235 231.31 69.5435C231.57 68.3569 231.986 67.3536 232.56 66.5336C233.126 65.7136 233.866 65.0869 234.78 64.6536C235.693 64.2269 236.806 64.0135 238.12 64.0135C239.273 64.0135 240.263 64.1935 241.09 64.5535C241.916 64.9135 242.593 65.4369 243.12 66.1235C243.646 66.8102 244.036 67.6502 244.29 68.6435C244.536 69.6302 244.66 70.7535 244.66 72.0135V73.4436ZM233.21 71.6536H242.5C242.466 69.6536 242.093 68.1836 241.38 67.2436C240.666 66.3102 239.556 65.8435 238.05 65.8435C237.27 65.8435 236.593 65.9569 236.02 66.1835C235.446 66.4102 234.966 66.7636 234.58 67.2436C234.186 67.7169 233.88 68.3202 233.66 69.0535C233.44 69.7802 233.29 70.6469 233.21 71.6536Z" fill="#191919"/>
<path d="M262.52 73.4436H251.03C251.03 74.7436 251.113 75.8702 251.28 76.8235C251.446 77.7769 251.723 78.5602 252.11 79.1735C252.503 79.7935 253.023 80.2502 253.67 80.5436C254.316 80.8369 255.12 80.9835 256.08 80.9835C256.553 80.9835 256.99 80.9402 257.39 80.8535C257.783 80.7736 258.153 80.6336 258.5 80.4335C258.846 80.2335 259.18 79.9802 259.5 79.6735C259.813 79.3602 260.123 78.9769 260.43 78.5236L262.18 79.6635C261.866 80.1702 261.52 80.6236 261.14 81.0236C260.76 81.4169 260.323 81.7502 259.83 82.0236C259.336 82.2969 258.776 82.5069 258.15 82.6535C257.516 82.8002 256.793 82.8736 255.98 82.8736C254.8 82.8736 253.763 82.7036 252.87 82.3636C251.976 82.0236 251.226 81.4835 250.62 80.7435C250.013 79.9969 249.553 79.0369 249.24 77.8636C248.926 76.6835 248.77 75.2535 248.77 73.5735C248.77 72.0669 248.903 70.7235 249.17 69.5435C249.43 68.3569 249.843 67.3536 250.41 66.5336C250.983 65.7136 251.726 65.0869 252.64 64.6536C253.553 64.2269 254.666 64.0135 255.98 64.0135C257.133 64.0135 258.123 64.1935 258.95 64.5535C259.776 64.9135 260.453 65.4369 260.98 66.1235C261.506 66.8102 261.896 67.6502 262.15 68.6435C262.396 69.6302 262.52 70.7535 262.52 72.0135V73.4436ZM251.07 71.6536H260.36C260.326 69.6536 259.953 68.1836 259.24 67.2436C258.526 66.3102 257.416 65.8435 255.91 65.8435C255.13 65.8435 254.453 65.9569 253.88 66.1835C253.306 66.4102 252.826 66.7636 252.44 67.2436C252.046 67.7169 251.74 68.3202 251.52 69.0535C251.3 69.7802 251.15 70.6469 251.07 71.6536Z" fill="#191919"/>
<path d="M277.1 64.6035L276.62 66.6735C276.226 66.5202 275.796 66.4435 275.33 66.4435C274.79 66.4435 274.296 66.5102 273.85 66.6435C273.403 66.7769 272.963 66.9802 272.53 67.2535C272.096 67.5269 271.656 67.8635 271.21 68.2635C270.763 68.6702 270.27 69.1435 269.73 69.6835V82.3435H267.53V64.5235H269.73V67.5935C270.236 67.0869 270.72 66.6269 271.18 66.2135C271.64 65.8002 272.1 65.4469 272.56 65.1535C273.013 64.8669 273.476 64.6435 273.95 64.4835C274.416 64.3235 274.913 64.2435 275.44 64.2435C275.766 64.2435 276.066 64.2735 276.34 64.3335C276.606 64.3869 276.86 64.4769 277.1 64.6035Z" fill="#191919"/>
<path d="M283.73 60.1735C283.73 60.7468 283.606 61.1402 283.36 61.3535C283.12 61.5602 282.72 61.6635 282.16 61.6635C281.586 61.6635 281.19 61.5335 280.97 61.2735C280.743 61.0135 280.63 60.6468 280.63 60.1735C280.63 59.6602 280.743 59.2868 280.97 59.0535C281.196 58.8268 281.593 58.7135 282.16 58.7135C282.74 58.7135 283.146 58.8268 283.38 59.0535C283.613 59.2802 283.73 59.6535 283.73 60.1735ZM283.27 82.3435H281.08V64.5235H283.27V82.3435Z" fill="#191919"/>
<path d="M302.74 82.3435H300.55V71.2836C300.55 70.2836 300.503 69.4502 300.41 68.7836C300.323 68.1169 300.166 67.5835 299.94 67.1835C299.713 66.7902 299.403 66.5102 299.01 66.3435C298.623 66.1835 298.133 66.1035 297.54 66.1035C296.76 66.1035 295.853 66.3935 294.82 66.9735C293.793 67.5602 292.74 68.3669 291.66 69.3935V82.3435H289.47V64.5236H291.66V67.3435C292.173 66.8569 292.686 66.4102 293.2 66.0035C293.713 65.5902 294.233 65.2369 294.76 64.9436C295.286 64.6502 295.816 64.4202 296.35 64.2535C296.883 64.0935 297.423 64.0135 297.97 64.0135C298.916 64.0135 299.696 64.1535 300.31 64.4335C300.923 64.7202 301.41 65.1369 301.77 65.6835C302.136 66.2302 302.39 66.9036 302.53 67.7036C302.67 68.5036 302.74 69.4202 302.74 70.4536V82.3435Z" fill="#191919"/>
<path d="M322.16 64.5236V81.9536C322.16 83.2136 322.026 84.2936 321.76 85.1936C321.486 86.0935 321.07 86.8302 320.51 87.4035C319.95 87.9702 319.236 88.3869 318.37 88.6536C317.51 88.9202 316.486 89.0535 315.3 89.0535C313.86 89.0535 312.613 88.8869 311.56 88.5535C310.506 88.2202 309.67 87.8102 309.05 87.3235L309.98 85.6236C310.56 86.0969 311.286 86.4836 312.16 86.7836C313.026 87.0769 314.073 87.2236 315.3 87.2236C316.146 87.2236 316.866 87.1269 317.46 86.9335C318.046 86.7402 318.526 86.4369 318.9 86.0236C319.273 85.6102 319.546 85.0769 319.72 84.4235C319.886 83.7769 319.97 82.9935 319.97 82.0735V79.9135C319.63 80.2402 319.253 80.5536 318.84 80.8535C318.426 81.1469 317.986 81.4036 317.52 81.6236C317.046 81.8435 316.556 82.0202 316.05 82.1535C315.536 82.2802 315.01 82.3435 314.47 82.3435C313.323 82.3435 312.336 82.1402 311.51 81.7335C310.683 81.3269 310.003 80.7336 309.47 79.9536C308.936 79.1802 308.54 78.2302 308.28 77.1035C308.02 75.9769 307.89 74.6936 307.89 73.2535C307.89 71.9602 308.026 70.7535 308.3 69.6335C308.573 68.5135 308.993 67.5369 309.56 66.7036C310.133 65.8702 310.86 65.2136 311.74 64.7336C312.62 64.2536 313.67 64.0135 314.89 64.0135C315.83 64.0135 316.726 64.1969 317.58 64.5635C318.426 64.9302 319.223 65.4302 319.97 66.0635V64.5236H322.16ZM319.97 77.8235V68.0736C319.143 67.4269 318.33 66.9102 317.53 66.5236C316.736 66.1369 315.913 65.9436 315.06 65.9436C314.2 65.9436 313.46 66.1202 312.84 66.4735C312.226 66.8269 311.716 67.3235 311.31 67.9635C310.91 68.6035 310.616 69.3669 310.43 70.2535C310.243 71.1469 310.15 72.1236 310.15 73.1835C310.15 74.0835 310.2 74.9669 310.3 75.8335C310.406 76.7002 310.623 77.4702 310.95 78.1435C311.276 78.8235 311.746 79.3736 312.36 79.7936C312.973 80.2136 313.783 80.4235 314.79 80.4235C315.31 80.4235 315.81 80.3469 316.29 80.1936C316.776 80.0402 317.236 79.8402 317.67 79.5935C318.103 79.3469 318.513 79.0669 318.9 78.7535C319.286 78.4402 319.643 78.1302 319.97 77.8235Z" fill="#191919"/>
<path fill-rule="evenodd" clip-rule="evenodd" d="M53.5824 65.6799C54.0307 64.8864 54.5676 65.176 55.1059 65.3122C71.4921 69.417 87.8796 73.5311 104.263 77.6465C106.981 78.3276 109.698 79.0073 112.55 79.7214C112.253 78.4254 111.611 77.4495 111.254 76.3691C110.998 75.5915 110.509 75.2278 109.696 75.0043C91.0376 69.9024 72.3887 64.77 53.7385 59.6363C52.2692 59.2304 52.5443 59.2211 51.8434 60.4496C47.8682 67.4559 43.9009 74.4687 39.931 81.4776C38.6575 83.7284 37.3853 85.9805 36.0443 88.3463C38.6125 88.6743 41.0471 88.9798 43.4777 89.3024C48.8124 90.0073 54.1444 90.732 59.4818 91.4315C64.8191 92.1271 70.1578 92.7884 75.4938 93.4866C81.5201 94.2761 87.5464 95.0616 93.5634 95.9106C94.9996 96.109 96.2586 95.9424 97.5294 95.2137C98.9338 94.407 100.447 93.7974 101.895 93.0647C102.24 92.8889 102.705 92.8545 102.92 92.3149C83.2154 89.1861 63.5403 86.0612 43.6536 82.9032C47.0708 76.9866 50.353 71.3478 53.5824 65.6799Z" fill="#191919"/>
<path fill-rule="evenodd" clip-rule="evenodd" d="M29.5856 93.0289C36.8418 79.9871 44.0345 67.0577 51.2232 54.1376C70.4606 59.869 89.6054 65.5713 109.068 71.3702C108.585 70.2382 108.176 69.409 107.879 68.5415C107.535 67.5523 106.952 67.0075 105.906 66.6755C90.5602 61.8077 75.2333 56.8882 59.8983 51.986C56.8131 50.9981 53.7147 50.0592 50.644 49.033C50.0079 48.8201 49.6958 48.8928 49.475 49.4958C49.4128 49.6664 49.2978 49.8198 49.2091 49.9825C40.7654 65.4166 32.3244 80.8494 23.8886 96.2861C23.6743 96.6775 23.3728 97.0385 23.3186 97.5596C24.6939 97.9074 26.097 97.8571 27.475 97.988C31.2201 98.3438 34.9679 98.6572 38.7143 98.9799C42.5996 99.3158 46.4849 99.6398 50.3716 99.973C54.118 100.292 57.8658 100.617 61.6135 100.938C65.4076 101.261 69.2017 101.58 72.9944 101.908C75.6763 102.138 78.3621 102.368 81.0427 102.613C81.8057 102.683 82.4841 102.535 83.1705 102.175C84.6476 101.409 86.1671 100.727 87.6575 99.9823C87.8995 99.8633 88.3478 99.8752 88.2446 99.2946C68.7639 97.2171 49.2594 95.1329 29.5856 93.0289Z" fill="#191919"/>
<path fill-rule="evenodd" clip-rule="evenodd" d="M17.9734 101.557C17.9099 101.137 18.0474 101.001 18.1347 100.841C28.127 82.2445 38.114 63.6498 48.1036 45.0538C48.667 44.0064 48.6749 44.0117 49.8849 44.4243C67.9665 50.5921 86.0441 56.7639 104.132 62.9106C104.537 63.0481 104.938 63.384 105.539 63.183C105.148 62.2692 104.712 61.4109 104.421 60.5077C104.15 59.6561 103.599 59.2792 102.795 58.9922C96.5667 56.7745 90.3513 54.5105 84.1319 52.2663C72.2551 47.979 60.3771 43.6957 48.4964 39.411C47.4106 39.0209 47.4027 39.0196 46.8526 40.0537C45.6373 42.3441 44.4299 44.6399 43.2172 46.9317C33.1694 65.9165 23.1216 84.9026 13.0777 103.886C12.8251 104.363 12.595 104.85 12.2922 105.46C12.9164 105.522 13.4096 105.587 13.9042 105.616C15.9447 105.728 17.9866 105.831 20.0284 105.933C28.1018 106.33 36.1753 106.711 44.2474 107.125C52.4134 107.544 60.5768 107.99 68.7401 108.441C69.687 108.493 70.5519 108.392 71.4101 107.917C72.6201 107.242 73.8923 106.68 75.1341 106.067C75.3576 105.956 75.7292 105.957 75.5996 105.484C56.3886 104.148 37.1526 102.907 17.9734 101.557Z" fill="#191919"/>
<path fill-rule="evenodd" clip-rule="evenodd" d="M8.26407 107.601C20.7293 83.6635 33.2051 59.7302 45.6783 35.7968C46.2906 34.6252 46.2945 34.6238 47.4979 35.0801C65.3613 41.8602 83.2221 48.6429 101.089 55.4045C101.437 55.5354 101.788 55.9044 102.278 55.6359C101.933 54.8107 101.569 54.0133 101.271 53.1934C100.984 52.4013 100.485 51.945 99.6771 51.625C86.5109 46.4239 73.3581 41.191 60.2038 35.9621C55.4748 34.0843 50.7445 32.2131 46.03 30.2969C45.3331 30.0125 44.906 29.994 44.6653 30.7848C44.6124 30.9594 44.496 31.1141 44.4114 31.2781C39.9045 40.0511 35.3964 48.8241 30.8922 57.5971C22.2686 74.4012 13.649 91.2106 5.00825 108.008C4.60887 108.783 4.39729 109.521 4.53746 110.392C4.6102 110.849 4.73715 111.043 5.20926 111.048C6.04503 111.056 6.88081 111.125 7.71658 111.146C16.7739 111.402 25.8326 111.642 34.8899 111.904C43.1101 112.141 51.333 112.338 59.5519 112.683C61.5051 112.766 63.0127 112.006 64.5652 110.949C45.6359 110.25 26.7054 109.547 7.7708 108.844C7.79329 108.295 8.07629 107.963 8.26407 107.601Z" fill="#191919"/>
<path fill-rule="evenodd" clip-rule="evenodd" d="M43.4143 27.1177C44.0662 25.8283 44.0675 25.8296 45.4138 26.3877C63.059 33.706 80.7055 41.0244 98.3493 48.344C98.5913 48.4432 98.8135 48.6667 99.156 48.3877C98.8624 47.6907 98.5001 46.9951 98.2753 46.2572C98.0029 45.3659 97.4025 44.9493 96.5852 44.5976C79.2111 37.1113 61.8476 29.6012 44.4815 22.0964C42.9594 21.4392 42.9594 21.4392 42.2175 22.9256C29.8342 47.7357 17.4616 72.5524 5.04131 97.3427C4.1857 99.05 3.49142 100.671 3.97411 102.615C4.10371 103.139 3.99394 103.722 3.99394 104.394C4.58507 104.188 4.60887 103.807 4.74244 103.542C17.6414 78.0736 30.5285 52.5943 43.4143 27.1177Z" fill="#191919"/>
<path fill-rule="evenodd" clip-rule="evenodd" d="M96.3816 41.9554C95.9756 40.9887 95.6674 40.3645 95.4519 39.7099C95.1543 38.8093 94.5711 38.3213 93.6997 37.918C76.6906 30.0667 59.696 22.1771 42.6975 14.2954C42.2783 14.101 41.8617 13.896 41.4372 13.7109C41.1542 13.5879 40.903 13.6064 40.7496 13.9357C40.6332 14.187 40.4864 14.4237 40.3647 14.6723C28.0965 39.8897 15.831 65.1045 3.56679 90.3193C3.3671 90.7319 3.15155 91.1313 3.17006 91.6311C3.21502 92.8557 3.31949 94.0684 3.71622 95.3194C16.4711 69.4315 29.2259 43.5476 42.0045 17.6108C60.0782 25.704 78.0818 33.7629 96.3816 41.9554Z" fill="#191919"/>
<path fill-rule="evenodd" clip-rule="evenodd" d="M115.095 85.3443C114.794 84.6355 114.634 83.9042 113.637 83.7019C110.234 83.0076 106.851 82.2208 103.463 81.4577C93.3453 79.1752 83.2287 76.8808 73.1094 74.6009C67.4626 73.3287 61.8079 72.0923 56.1665 70.7897C55.5436 70.6455 55.2632 70.7474 54.9578 71.2803C53.8588 73.2124 52.7109 75.114 51.5366 77.1043C52.0246 77.386 52.4385 77.4349 52.8485 77.5156C56.9903 78.2998 61.1322 79.0919 65.274 79.8854C72.3292 81.2342 79.3817 82.5818 86.4369 83.9333C93.4894 85.2835 100.547 86.6192 107.594 87.9998C110.922 88.6544 110.912 88.6967 113.893 87.2394C114.101 87.1389 114.312 87.0463 114.519 86.9418C115.558 86.4261 115.557 86.4261 115.095 85.3443Z" fill="#191919"/>
<path fill-rule="evenodd" clip-rule="evenodd" d="M66.7433 22.6479C75.593 26.8757 84.44 31.1128 93.5873 35.49C93.3029 34.8116 93.1125 34.4506 92.9975 34.0658C92.5902 32.6984 91.724 31.8904 90.4095 31.2503C77.6321 25.0336 64.8892 18.7428 52.1383 12.4705C48.1115 10.4895 44.09 8.50057 40.0632 6.51692C39.082 6.03423 39.0807 6.04085 38.5848 7.06837C38.5438 7.15169 38.5001 7.23368 38.4604 7.31699C26.7067 32.065 14.9648 56.8156 3.17404 81.545C2.30785 83.3647 2.76144 85.0693 3.07882 86.8691C15.3986 61.2338 27.7183 35.5972 40.0579 9.92086C49.0386 14.2042 57.8922 18.4214 66.7433 22.6479Z" fill="#191919"/>
<path fill-rule="evenodd" clip-rule="evenodd" d="M18.4957 44.7312C24.9082 31.0758 31.318 17.4177 37.7305 3.7623C38.229 2.69907 38.2383 2.70171 39.287 3.22275C39.4523 3.30474 39.6229 3.38276 39.7868 3.46608C55.7777 11.5474 71.7672 19.6315 87.7567 27.7115C88.6982 28.1863 89.6411 28.6544 90.5814 29.1252C90.3248 27.931 90.0947 26.9088 88.9323 26.3137C74.0576 18.6939 59.2067 11.0291 44.3492 3.37483C42.2928 2.31424 40.2312 1.26291 38.188 0.177192C37.6868 -0.0899392 37.3589 -0.0899392 37.0349 0.420519C36.5892 1.12008 36.0232 1.7284 35.6661 2.50467C32.7264 8.89597 29.7575 15.2714 26.7953 21.6521C18.6875 39.1135 10.5796 56.5749 2.4705 74.0336C1.91904 75.2238 1.90714 77.5539 2.47711 78.7996C2.612 78.5272 2.73895 78.2826 2.85533 78.0313C8.06967 66.9335 13.284 55.833 18.4957 44.7312Z" fill="#191919"/>
<path fill-rule="evenodd" clip-rule="evenodd" d="M28.0278 11.9178C26.8799 13.4796 25.4451 14.8337 24.6252 16.6375C17.1243 33.1415 9.63145 49.6507 2.07641 66.1308C1.28295 67.8605 1.55934 69.4832 1.73522 71.3875C4.01509 67.2892 29.7536 10.844 29.8263 9.78601C29.0659 10.3877 28.5687 11.1825 28.0278 11.9178Z" fill="#191919"/>
<path fill-rule="evenodd" clip-rule="evenodd" d="M19.4822 22.9124C18.7628 23.4969 18.2775 24.2969 17.7208 25.0177C16.6245 26.4406 15.4634 27.7987 14.7175 29.4928C10.3614 39.3898 5.96436 49.271 1.50777 59.1245C0.783079 60.7286 0.988056 62.2348 1.41652 63.8614C7.5288 50.2787 13.6437 36.6947 19.756 23.112C19.6661 23.0459 19.5748 22.9798 19.4822 22.9124Z" fill="#191919"/>
<path fill-rule="evenodd" clip-rule="evenodd" d="M6.5621 39.7126C4.76095 43.869 3.0193 48.0532 1.10707 52.158C0.407505 53.6563 0.362542 55.0541 0.775141 56.7548C1.83044 55.1969 10.5109 35.3473 10.5162 34.3052C9.16596 36.0838 7.47722 37.6046 6.5621 39.7126Z" fill="#191919"/>
<path fill-rule="evenodd" clip-rule="evenodd" d="M2.71383 44.0964C1.89657 45.1345 1.08195 46.1753 0.262042 47.2108C0.115253 47.3972 -0.0156681 47.5916 0.0015235 47.8323C0.058388 48.6562 0.131121 49.4814 0.198565 50.3052C0.280556 50.3119 0.359902 50.3198 0.441892 50.3291C1.30544 48.2978 2.16899 46.2679 3.03121 44.2379C2.92542 44.1903 2.81962 44.1427 2.71383 44.0964Z" fill="#191919"/>
</svg>
